<svg width="137" height="183" viewBox="0 0 137 183" fill="none" xmlns="http://www.w3.org/2000/svg">
<path d="M106.045 182.351C101.778 179.951 97.4448 176.751 93.0448 172.751C88.7781 168.884 84.7781 164.484 81.0448 159.551C77.3114 154.617 74.1114 149.617 71.4448 144.551L92.0448 135.751C95.3781 142.684 99.9114 148.951 105.645 154.551C111.378 160.151 117.311 164.884 123.445 168.751L106.045 182.351ZM0.644775 73.3508C0.644775 58.5508 3.31144 45.7508 8.64478 34.9508C14.1114 24.1508 21.9114 15.8175 32.0448 9.95081C42.1781 3.95081 54.2448 0.950806 68.2448 0.950806C82.1114 0.950806 94.1114 3.95081 104.245 9.95081C114.378 15.8175 122.178 24.1508 127.645 34.9508C133.245 45.7508 136.045 58.4841 136.045 73.1508C136.045 87.9508 133.245 100.817 127.645 111.751C122.178 122.551 114.378 130.951 104.245 136.951C94.1114 142.951 82.1114 145.951 68.2448 145.951C54.2448 145.951 42.1781 142.951 32.0448 136.951C22.0448 130.951 14.3114 122.551 8.84478 111.751C3.37811 100.817 0.644775 88.0175 0.644775 73.3508ZM27.6448 73.3508C27.6448 89.2175 31.0448 101.617 37.8448 110.551C44.6448 119.484 54.7781 123.951 68.2448 123.951C81.3114 123.951 91.3781 119.484 98.4448 110.551C105.511 101.617 109.045 89.2175 109.045 73.3508C109.045 57.3508 105.511 44.9508 98.4448 36.1508C91.5114 27.3508 81.4448 22.9508 68.2448 22.9508C54.7781 22.9508 44.6448 27.3508 37.8448 36.1508C31.0448 44.9508 27.6448 57.3508 27.6448 73.3508Z" fill="white"/>
<path d="M58.0447 111.755V70.6548H48.3447V61.2548H61.5447L58.0447 64.4548V56.7548C58.0447 50.4881 59.6447 45.7548 62.8447 42.5548C66.1114 39.3548 70.8781 37.7548 77.1447 37.7548C78.6114 37.7548 80.1447 37.8548 81.7447 38.0548C83.4114 38.2548 84.8447 38.6214 86.0447 39.1548V48.9548C85.1781 48.6214 84.1447 48.3548 82.9447 48.1548C81.7447 47.9548 80.5781 47.8548 79.4447 47.8548C77.7114 47.8548 76.1447 48.1881 74.7447 48.8548C73.4114 49.5214 72.3447 50.5548 71.5447 51.9548C70.8114 53.2881 70.4447 55.0881 70.4447 57.3548V63.4548L68.6447 61.2548H83.7447V70.6548H70.5447V111.755H58.0447Z" fill="#0062BD"/>
</svg>
