<svg width="335" height="187" viewBox="0 0 335 187" fill="none" xmlns="http://www.w3.org/2000/svg">
<path d="M84.5262 146.72C81.1129 144.8 77.6462 142.24 74.1262 139.04C70.7129 135.947 67.5129 132.427 64.5262 128.48C61.5396 124.533 58.9796 120.533 56.8462 116.48L73.3262 109.44C75.9929 114.987 79.6196 120 84.2062 124.48C88.7929 128.96 93.5396 132.747 98.4462 135.84L84.5262 146.72ZM0.206238 59.52C0.206238 47.68 2.33957 37.44 6.60624 28.8C10.9796 20.16 17.2196 13.4933 25.3262 8.79999C33.4329 3.99999 43.0862 1.59999 54.2862 1.59999C65.3796 1.59999 74.9796 3.99999 83.0862 8.79999C91.1929 13.4933 97.4329 20.16 101.806 28.8C106.286 37.44 108.526 47.6267 108.526 59.36C108.526 71.2 106.286 81.4933 101.806 90.24C97.4329 98.88 91.1929 105.6 83.0862 110.4C74.9796 115.2 65.3796 117.6 54.2862 117.6C43.0862 117.6 33.4329 115.2 25.3262 110.4C17.3262 105.6 11.1396 98.88 6.76624 90.24C2.39291 81.4933 0.206238 71.2533 0.206238 59.52ZM21.8062 59.52C21.8062 72.2133 24.5262 82.1333 29.9662 89.28C35.4062 96.4267 43.5129 100 54.2862 100C64.7396 100 72.7929 96.4267 78.4462 89.28C84.0996 82.1333 86.9262 72.2133 86.9262 59.52C86.9262 46.72 84.0996 36.8 78.4462 29.76C72.8996 22.72 64.8462 19.2 54.2862 19.2C43.5129 19.2 35.4062 22.72 29.9662 29.76C24.5262 36.8 21.8062 46.72 21.8062 59.52Z" fill="white"/>
<path d="M157.344 117.6C147.424 117.6 140.01 114.88 135.104 109.44C130.197 104 127.744 95.68 127.744 84.48V35.2H147.744V84.32C147.744 90.2933 148.97 94.72 151.424 97.6C153.877 100.373 157.61 101.76 162.624 101.76C168.277 101.76 172.864 99.84 176.384 96C180.01 92.16 181.824 87.0933 181.824 80.8V35.2H201.824V116H182.304V99.52H184.544C182.197 105.28 178.624 109.76 173.824 112.96C169.13 116.053 163.637 117.6 157.344 117.6Z" fill="white"/>
<path d="M223.536 116V35.2H243.536V116H223.536ZM222.416 20V0.47998H244.656V20H222.416Z" fill="white"/>
<path d="M262.055 116V102.88L312.615 45.44V50.24H262.055V35.2H330.695V48.32L279.655 106.24L279.495 100.96H332.455V116H262.055Z" fill="white"/>
<path d="M116.976 186V151.92H109.136V145.68H119.216L116.976 147.76V141.36C116.976 136.613 118.176 133.013 120.576 130.56C122.976 128.053 126.496 126.8 131.136 126.8C132.256 126.8 133.43 126.88 134.656 127.04C135.883 127.2 136.896 127.467 137.696 127.84V134.4C137.056 134.133 136.256 133.92 135.296 133.76C134.39 133.547 133.456 133.44 132.496 133.44C130.95 133.44 129.616 133.76 128.496 134.4C127.376 134.987 126.496 135.893 125.856 137.12C125.27 138.347 124.976 139.92 124.976 141.84V147.28L123.776 145.68H135.936V151.92H125.056V186H116.976Z" fill="#0062BD"/>
<path d="M142.541 186V155.68C142.541 154.027 142.488 152.373 142.381 150.72C142.328 149.013 142.221 147.333 142.061 145.68H149.901L150.781 156.08H149.501C150.035 153.573 150.941 151.493 152.221 149.84C153.501 148.187 155.048 146.96 156.861 146.16C158.728 145.36 160.675 144.96 162.701 144.96C163.555 144.96 164.275 145.013 164.861 145.12C165.448 145.173 166.035 145.28 166.621 145.44L166.541 152.64C165.635 152.267 164.835 152.053 164.141 152C163.501 151.893 162.701 151.84 161.741 151.84C159.395 151.84 157.395 152.373 155.741 153.44C154.088 154.453 152.835 155.84 151.981 157.6C151.128 159.36 150.701 161.253 150.701 163.28V186H142.541Z" fill="#0062BD"/>
<path d="M190.951 186.72C184.444 186.72 179.324 184.88 175.591 181.2C171.857 177.52 169.991 172.427 169.991 165.92C169.991 161.707 170.791 158.027 172.391 154.88C174.044 151.733 176.311 149.307 179.191 147.6C182.124 145.84 185.511 144.96 189.351 144.96C193.137 144.96 196.311 145.76 198.871 147.36C201.431 148.96 203.377 151.227 204.711 154.16C206.044 157.04 206.711 160.453 206.711 164.4V166.96H176.311V162.32H201.191L199.831 163.36C199.831 159.36 198.924 156.267 197.111 154.08C195.351 151.84 192.791 150.72 189.431 150.72C185.697 150.72 182.817 152.027 180.791 154.64C178.764 157.2 177.751 160.747 177.751 165.28V166.08C177.751 170.827 178.897 174.4 181.191 176.8C183.537 179.2 186.844 180.4 191.111 180.4C193.457 180.4 195.644 180.08 197.671 179.44C199.751 178.747 201.724 177.627 203.591 176.08L206.231 181.6C204.364 183.253 202.097 184.533 199.431 185.44C196.764 186.293 193.937 186.72 190.951 186.72Z" fill="#0062BD"/>
<path d="M234.623 186.72C228.116 186.72 222.996 184.88 219.263 181.2C215.529 177.52 213.663 172.427 213.663 165.92C213.663 161.707 214.463 158.027 216.063 154.88C217.716 151.733 219.983 149.307 222.863 147.6C225.796 145.84 229.183 144.96 233.023 144.96C236.809 144.96 239.983 145.76 242.543 147.36C245.103 148.96 247.049 151.227 248.383 154.16C249.716 157.04 250.383 160.453 250.383 164.4V166.96H219.983V162.32H244.863L243.503 163.36C243.503 159.36 242.596 156.267 240.783 154.08C239.023 151.84 236.463 150.72 233.103 150.72C229.369 150.72 226.489 152.027 224.463 154.64C222.436 157.2 221.423 160.747 221.423 165.28V166.08C221.423 170.827 222.569 174.4 224.863 176.8C227.209 179.2 230.516 180.4 234.783 180.4C237.129 180.4 239.316 180.08 241.343 179.44C243.423 178.747 245.396 177.627 247.263 176.08L249.903 181.6C248.036 183.253 245.769 184.533 243.103 185.44C240.436 186.293 237.609 186.72 234.623 186.72Z" fill="#0062BD"/>
<path d="M257.264 186V180.64L283.504 149.92L283.584 151.92H257.264V145.68H290.944V151.04L264.464 182L264.384 179.84H291.824V186H257.264Z" fill="#0062BD"/>
<path d="M318.919 186.72C312.413 186.72 307.293 184.88 303.559 181.2C299.826 177.52 297.959 172.427 297.959 165.92C297.959 161.707 298.759 158.027 300.359 154.88C302.013 151.733 304.279 149.307 307.159 147.6C310.093 145.84 313.479 144.96 317.319 144.96C321.106 144.96 324.279 145.76 326.839 147.36C329.399 148.96 331.346 151.227 332.679 154.16C334.013 157.04 334.679 160.453 334.679 164.4V166.96H304.279V162.32H329.159L327.799 163.36C327.799 159.36 326.893 156.267 325.079 154.08C323.319 151.84 320.759 150.72 317.399 150.72C313.666 150.72 310.786 152.027 308.759 154.64C306.733 157.2 305.719 160.747 305.719 165.28V166.08C305.719 170.827 306.866 174.4 309.159 176.8C311.506 179.2 314.813 180.4 319.079 180.4C321.426 180.4 323.613 180.08 325.639 179.44C327.719 178.747 329.693 177.627 331.559 176.08L334.199 181.6C332.333 183.253 330.066 184.533 327.399 185.44C324.733 186.293 321.906 186.72 318.919 186.72Z" fill="#0062BD"/>
</svg>
