<svg width="513" height="309" viewBox="0 0 513 309" fill="none" xmlns="http://www.w3.org/2000/svg">
<path d="M230.072 307.356V259.073H219.403V253.838H231.673L230.072 255.547V246.254C230.072 240.557 231.495 236.142 234.34 233.008C237.185 229.875 241.24 228.308 246.503 228.308C247.855 228.308 249.242 228.451 250.665 228.735C252.087 228.949 253.261 229.234 254.186 229.59V235.358C253.332 235.002 252.301 234.682 251.091 234.397C249.882 234.112 248.602 233.97 247.25 233.97C244.903 233.97 242.911 234.468 241.275 235.465C239.71 236.462 238.501 237.922 237.648 239.845C236.865 241.696 236.474 244.082 236.474 247.002V255.547L235.407 253.838H251.838V259.073H236.581V307.356H230.072Z" fill="#0062BD"/>
<path d="M261.998 307.356V266.336C261.998 264.271 261.927 262.206 261.784 260.141C261.713 258.004 261.535 255.904 261.251 253.838H267.653L268.506 266.123L267.226 266.23C267.937 263.239 269.218 260.782 271.067 258.859C272.916 256.865 275.05 255.369 277.469 254.372C279.887 253.375 282.377 252.877 284.938 252.877C285.862 252.877 286.716 252.948 287.498 253.091C288.352 253.162 289.134 253.304 289.846 253.518L289.632 259.393C288.779 259.108 287.925 258.93 287.071 258.859C286.218 258.788 285.293 258.752 284.297 258.752C281.096 258.752 278.287 259.535 275.868 261.102C273.521 262.669 271.707 264.663 270.427 267.084C269.146 269.505 268.506 271.962 268.506 274.455V307.356H261.998Z" fill="#0062BD"/>
<path d="M321.617 308.21C313.508 308.21 307.071 305.789 302.305 300.946C297.61 296.104 295.263 289.374 295.263 280.757C295.263 275.06 296.294 270.146 298.357 266.016C300.491 261.886 303.443 258.681 307.213 256.402C310.983 254.052 315.357 252.877 320.337 252.877C325.102 252.877 329.121 253.91 332.393 255.975C335.665 257.969 338.19 260.853 339.969 264.627C341.747 268.33 342.636 272.746 342.636 277.873V280.864H299.958V276.164H338.582L336.768 277.553C336.768 271.499 335.381 266.764 332.607 263.345C329.833 259.856 325.707 258.111 320.23 258.111C314.397 258.111 309.845 260.141 306.573 264.2C303.301 268.188 301.665 273.493 301.665 280.116V280.864C301.665 287.985 303.407 293.398 306.893 297.101C310.449 300.804 315.393 302.655 321.724 302.655C324.996 302.655 328.054 302.157 330.9 301.16C333.745 300.163 336.483 298.454 339.115 296.033L341.783 300.839C339.506 303.19 336.554 305.005 332.927 306.287C329.299 307.569 325.529 308.21 321.617 308.21Z" fill="#0062BD"/>
<path d="M379.55 308.21C371.441 308.21 365.003 305.789 360.238 300.946C355.543 296.104 353.196 289.374 353.196 280.757C353.196 275.06 354.227 270.146 356.29 266.016C358.424 261.886 361.376 258.681 365.146 256.402C368.916 254.052 373.29 252.877 378.269 252.877C383.035 252.877 387.054 253.91 390.326 255.975C393.598 257.969 396.123 260.853 397.902 264.627C399.68 268.33 400.569 272.746 400.569 277.873V280.864H357.89V276.164H396.514L394.701 277.553C394.701 271.499 393.314 266.764 390.539 263.345C387.765 259.856 383.64 258.111 378.163 258.111C372.33 258.111 367.778 260.141 364.506 264.2C361.234 268.188 359.598 273.493 359.598 280.116V280.864C359.598 287.985 361.34 293.398 364.826 297.101C368.382 300.804 373.326 302.655 379.656 302.655C382.928 302.655 385.987 302.157 388.832 301.16C391.678 300.163 394.416 298.454 397.048 296.033L399.715 300.839C397.439 303.19 394.487 305.005 390.86 306.287C387.232 307.569 383.462 308.21 379.55 308.21Z" fill="#0062BD"/>
<path d="M411.022 307.356V302.869L448.259 257.257L448.366 259.073H411.022V253.838H454.554V258.325L416.997 304.044L416.89 302.121H455.728V307.356H411.022Z" fill="#0062BD"/>
<path d="M491.352 308.21C483.243 308.21 476.805 305.789 472.04 300.946C467.345 296.104 464.998 289.374 464.998 280.757C464.998 275.06 466.029 270.146 468.092 266.016C470.226 261.886 473.178 258.681 476.948 256.402C480.718 254.052 485.092 252.877 490.071 252.877C494.837 252.877 498.856 253.91 502.128 255.975C505.4 257.969 507.925 260.853 509.704 264.627C511.482 268.33 512.371 272.746 512.371 277.873V280.864H469.692V276.164H508.316L506.503 277.553C506.503 271.499 505.116 266.764 502.341 263.345C499.567 259.856 495.442 258.111 489.965 258.111C484.132 258.111 479.58 260.141 476.308 264.2C473.036 268.188 471.4 273.493 471.4 280.116V280.864C471.4 287.985 473.142 293.398 476.628 297.101C480.184 300.804 485.128 302.655 491.458 302.655C494.73 302.655 497.789 302.157 500.634 301.16C503.48 300.163 506.218 298.454 508.85 296.033L511.517 300.839C509.241 303.19 506.289 305.005 502.662 306.287C499.034 307.569 495.264 308.21 491.352 308.21Z" fill="#0062BD"/>
<path d="M110.197 267.405V176.251H113.611C110.576 186.126 104.412 194.007 95.1174 199.894C85.8229 205.781 75.2955 208.724 63.5352 208.724C51.0162 208.724 40.0146 205.781 30.5304 199.894C21.0463 193.817 13.6487 185.176 8.33759 173.972C3.02648 162.768 0.370926 149.379 0.370926 133.807C0.370926 118.235 3.02648 104.942 8.33759 93.9276C13.6487 82.7233 21.0463 74.1776 30.5304 68.2906C40.0146 62.2137 51.0162 59.1752 63.5352 59.1752C75.6749 59.1752 86.2971 62.2137 95.4019 68.2906C104.696 74.1776 110.861 82.1536 113.896 92.2185H110.766L113.896 62.0238H148.039C147.47 67.9108 146.901 73.8928 146.332 79.9697C145.952 86.0466 145.763 92.0286 145.763 97.9156V267.405H110.197ZM73.4935 181.378C84.6848 181.378 93.6947 177.485 100.523 169.699C107.352 161.723 110.766 149.759 110.766 133.807C110.766 117.855 107.352 105.986 100.523 98.2004C93.6947 90.4144 84.6848 86.5213 73.4935 86.5213C62.3023 86.5213 53.2924 90.4144 46.4638 98.2004C39.6352 105.986 36.2209 117.855 36.2209 133.807C36.2209 149.759 39.5404 161.723 46.1793 169.699C53.0078 177.485 62.1126 181.378 73.4935 181.378Z" fill="white"/>
<path d="M222.048 208.724C204.408 208.724 191.225 203.882 182.5 194.197C173.774 184.512 169.411 169.699 169.411 149.759V62.0238H204.977V149.474C204.977 160.109 207.158 167.99 211.521 173.117C215.884 178.055 222.523 180.524 231.438 180.524C241.491 180.524 249.647 177.105 255.907 170.269C262.356 163.432 265.58 154.412 265.58 143.208V62.0238H301.146V205.876H266.434V176.536H270.417C266.244 186.79 259.89 194.766 251.354 200.464C243.008 205.971 233.24 208.724 222.048 208.724Z" fill="white"/>
<path d="M325.531 205.876V62.0238H361.096V205.876H325.531ZM323.539 34.9625V0.210144H363.088V34.9625H323.539Z" fill="white"/>
<path d="M385.492 205.876V182.518L475.401 80.2545V88.8002H385.492V62.0238H507.552V85.3819L416.789 188.5L416.505 179.099H510.682V205.876H385.492Z" fill="white"/>
</svg>
